Coordinates
version=1
nRows=14
nColumns=40
inDegrees=yes

Units are S.I. units (second, meters, Newtons, ...)
Angles are in degrees.

endheader
time	pelvis_tilt	pelvis_list	pelvis_rotation	pelvis_tx	pelvis_ty	pelvis_tz	hip_flexion_r	hip_adduction_r	hip_rotation_r	knee_angle_r	knee_angle_r_beta	ankle_angle_r	subtalar_angle_r	mtp_angle_r	hip_flexion_l	hip_adduction_l	hip_rotation_l	knee_angle_l	knee_angle_l_beta	ankle_angle_l	subtalar_angle_l	mtp_angle_l	lumbar_extension	lumbar_bending	lumbar_rotation	arm_flex_r	arm_add_r	arm_rot_r	elbow_flex_r	pro_sup_r	wrist_flex_r	wrist_dev_r	arm_flex_l	arm_add_l	arm_rot_l	elbow_flex_l	pro_sup_l	wrist_flex_l	wrist_dev_l
     43.98442857	     -8.72683838	     -5.92350675	      3.54564888	      1.02755111	      0.92524151	      0.48108121	     14.76005758	      4.35349915	    -14.03962674	     14.62177578	     14.62177578	     10.89960808	     -0.29619041	     -1.56155102	     42.84014905	    -10.09534306	      4.67368572	     52.56155671	     52.56155671	     11.27627967	    -19.10178406	     17.64441671	    -12.89096563	      4.06735686	      1.28344022	     33.02857430	    -20.22682029	      6.28640723	     82.26981373	     44.41715229	      0.00000000	      0.00000000	      6.39912699	     -7.00385623	     -2.36241082	     28.09608686	     46.52106502	      0.00000000	      0.00000000
     43.99635714	     -8.97742336	     -5.80631730	      3.62112125	      1.02613513	      0.92491814	      0.48022180	     14.48533381	      4.21782043	    -13.96630999	     14.39046212	     14.39046212	     11.17517665	     -0.29254368	     -1.63060179	     43.13572844	     -9.61667355	      4.55496562	     49.29331407	     49.29331407	     11.52762067	    -18.99607632	     17.88015526	    -12.75349996	      3.95055088	      1.30882387	     34.89559959	    -19.95978716	      5.96514883	     83.65807283	     44.39548647	      0.00000000	      0.00000000	      5.45407753	     -6.82024310	     -2.24703749	     27.46578747	     46.48432463	      0.00000000	      0.00000000
     44.00828571	     -9.20610244	     -5.86561081	      3.71118651	      1.02486722	      0.92453175	      0.47928023	     14.23663636	      4.24251131	    -13.99434033	     14.25804789	     14.25804789	     11.43263676	     -0.26725414	     -1.73106071	     43.34149213	     -9.24501567	      4.66479596	     45.98411982	     45.98411982	     11.75618911	    -18.66201570	     18.08797189	    -12.53385428	      4.06632475	      1.42459621	     36.53591734	    -19.73333110	      5.73237833	     84.93405285	     44.37156451	      0.00000000	      0.00000000	      4.52092024	     -6.59293072	     -2.14868615	     26.92194613	     46.45105502	      0.00000000	      0.00000000
     44.02021429	     -9.30144118	     -5.66500486	      3.82797973	      1.02387462	      0.92441690	      0.47799484	     13.66638322	      3.95297390	    -14.30260025	     13.88986864	     13.88986864	     11.79057878	      0.48855712	     -1.88203347	     43.06310952	     -8.61114045	      4.68646832	     42.35117290	     42.35117290	     10.93789363	    -18.52070264	     15.67403542	    -12.72483589	      3.94719837	      1.28328391	     37.45604140	    -19.38979148	      5.53424482	     89.80500433	     44.27952312	      0.00000000	      0.00000000	      3.82360859	     -6.58032107	     -1.14087849	     25.72466709	     46.24352675	      0.00000000	      0.00000000
     44.03214286	     -9.47506906	     -5.62553046	      3.90024635	      1.02290251	      0.92408923	      0.47673292	     13.23860959	      3.87818430	    -14.30772201	     13.58189398	     13.58189398	     12.04863994	      0.63476199	     -1.93731429	     42.93610508	     -8.10347063	      4.94932199	     39.04594479	     39.04594479	     10.99322688	    -17.96229997	     15.51990689	    -12.63392649	      3.96558120	      1.11268076	     38.95630953	    -18.67023810	      5.29021831	     91.60787759	     44.25038765	      0.00000000	      0.00000000	      2.84647687	     -6.47383256	     -0.83043202	     25.27814203	     46.16541302	      0.00000000	      0.00000000
     44.04407143	     -9.66565812	     -5.56955490	      3.92033379	      1.02208332	      0.92367705	      0.47541917	     12.80993240	      3.78438276	    -14.31131187	     13.26821692	     13.26821692	     12.34971866	      0.90007424	     -2.02522702	     42.76664927	     -7.67535858	      5.09127331	     35.93540039	     35.93540039	     11.10551625	    -16.99429153	     15.40323762	    -12.50553572	      3.94488256	      1.14854903	     40.31111515	    -18.19140097	      5.14536261	     93.23316780	     44.21769164	      0.00000000	      0.00000000	      1.92363472	     -6.35543852	     -0.63163165	     25.06917242	     46.10815425	      0.00000000	      0.00000000
     44.05600000	     -9.77753609	     -5.59216355	      3.94346885	      1.02156443	      0.92326848	      0.47403230	     12.24947804	      3.77086284	    -14.42509237	     12.89779786	     12.89779786	     12.63984372	      1.32506457	     -2.10276666	     42.47032240	     -7.38406670	      5.18510326	     33.05421751	     33.05421751	     11.17825093	    -15.77670017	     15.08882735	    -12.44201982	      4.03749792	      1.07419621	     41.45845852	    -17.55389599	      5.06172281	     95.27321030	     44.17130880	      0.00000000	      0.00000000	      0.88562818	     -6.25762353	     -0.38805064	     25.07865006	     46.03717880	      0.00000000	      0.00000000
     44.06792857	     -9.86261665	     -5.72637543	      3.93914828	      1.02132739	      0.92266222	      0.47264264	     11.64746874	      3.86162652	    -14.70842401	     12.53558538	     12.53558538	     13.00624409	      2.03875282	     -2.09606463	     42.06804705	     -7.27752032	      5.18942392	     30.32160852	     30.32160852	     10.26388280	    -14.72928155	     12.22248451	    -12.42397282	      4.23456730	      1.52956495	     42.00541068	    -17.47484368	      4.59663775	     98.28328669	     44.36136107	      0.00000000	      0.00000000	     -0.72646391	     -6.99048489	      5.18432305	     27.28658532	     45.06388732	      0.00000000	      0.00000000
     44.07985714	    -10.04378833	     -5.89859285	      3.88984523	      1.02110999	      0.92179673	      0.47118971	     11.25052117	      4.00240073	    -14.65297019	     12.34572931	     12.34572931	     13.34110308	      2.17522415	     -2.20670495	     41.90303380	     -7.19971633	      5.20549557	     28.25909746	     28.25909746	     10.40209976	    -13.60748681	     12.47823011	    -12.15976623	      4.47784702	      1.80064015	     42.97297705	    -17.11471511	      4.51088520	     99.13825067	     44.34494385	      0.00000000	      0.00000000	     -1.55729462	     -6.77382862	      5.22500885	     27.16053483	     45.04553432	      0.00000000	      0.00000000
     44.09178571	     -9.97508352	     -5.91005243	      3.79875904	      1.02152499	      0.92137369	      0.46972560	     10.32701538	      4.03442684	    -14.65580461	     11.76992290	     11.76992290	     13.64472371	      2.70639399	     -2.17551800	     41.32752630	     -7.14648826	      4.73675518	     26.48183770	     26.48183770	     10.56244381	    -12.25546418	     12.70017137	    -12.23982233	      4.48112068	      1.56650722	     43.64957224	    -16.06483364	      4.56128467	    101.23342426	     44.29170314	      0.00000000	      0.00000000	     -2.71342385	     -6.77768404	      5.24826833	     27.49363630	     45.02559789	      0.00000000	      0.00000000
     44.10371429	    -10.01213083	     -6.10656401	      3.68996284	      1.02200737	      0.92049669	      0.46820623	      9.63043395	      4.22292276	    -14.67377047	     11.39939475	     11.39939475	     14.03133768	      3.20750165	     -2.12089722	     40.99148930	     -7.25913716	      4.26578930	     25.24529346	     25.24529346	     10.46100376	    -11.27163882	     12.86500459	    -12.14745317	      4.72197921	      1.69350996	     44.08853653	    -15.45477235	      4.43718036	    103.05304378	     44.25888203	      0.00000000	      0.00000000	     -3.93994950	     -6.72257530	      5.26353178	     28.48044263	     45.00674935	      0.00000000	      0.00000000
     44.11564286	    -10.05727288	     -6.24453570	      3.50899610	      1.02282136	      0.91941716	      0.46665453	      8.98938470	      4.33538645	    -14.59187167	     11.18498304	     11.18498304	     14.55449856	      3.59186161	     -1.88312812	     40.57583892	     -7.34655863	      3.72248847	     24.31933833	     24.31933833	     10.18957648	    -10.78632888	     12.73213456	    -11.98001390	      4.85762349	      1.95901889	     44.30521889	    -14.95123168	      4.24410452	    104.56647257	     44.25657077	      0.00000000	      0.00000000	     -5.31636902	     -6.84614587	      5.43732322	     30.02412457	     44.97495545	      0.00000000	      0.00000000
     44.12757143	    -10.14126851	     -6.44075838	      3.23340860	      1.02381002	      0.91810478	      0.46513557	      8.47287968	      4.49719370	    -14.33876406	     11.13320563	     11.13320563	     14.98354981	      3.76359431	     -1.98978464	     40.22526800	     -7.52837151	      3.14930759	     23.80386331	     23.80386331	      9.80555359	    -10.74776020	     12.95550642	    -11.64984133	      5.05055753	      2.27731309	     44.53846354	    -14.54514129	      4.31021055	    105.03144775	     44.24399776	      0.00000000	      0.00000000	     -6.12031165	     -6.68249909	      5.49100525	     29.88473219	     44.95648790	      0.00000000	      0.00000000
     44.13950000	    -10.07130581	     -6.56212024	      3.03616554	      1.02519597	      0.91698056	      0.46347530	      7.66258758	      4.59165084	    -14.17654530	     10.91918018	     10.91918018	     15.66173545	      4.15449742	     -1.45438696	     39.54148866	     -7.66155534	      2.44925119	     23.29552631	     23.29552631	      8.76957735	    -10.75712049	     11.85722100	    -11.60761650	      5.13415654	      2.23268221	     44.37397649	    -13.72656565	      4.16333221	    106.78661187	     44.23585018	      0.00000000	      0.00000000	     -7.51668964	     -6.83385633	      5.65351206	     31.44186860	     44.93671503	      0.00000000	      0.00000000
